<?xml version="1.0" standalone="no"?>
<!DOCTYPE svg PUBLIC "-//W3C//DTD SVG 20010904//EN"
 "http://www.w3.org/TR/2001/REC-SVG-20010904/DTD/svg10.dtd">
<svg version="1.0" xmlns="http://www.w3.org/2000/svg"
 width="328.000000pt" height="291.000000pt" viewBox="0 0 328.000000 291.000000"
 preserveAspectRatio="xMidYMid meet">
<metadata>
Created by potrace 1.15, written by Peter Selinger 2001-2017
</metadata>
<g transform="translate(0.000000,291.000000) scale(0.100000,-0.100000)"
fill="#000000" stroke="none">
<path d="M1410 2865 c-150 -26 -318 -81 -420 -139 -25 -14 -61 -34 -81 -45
-154 -85 -350 -274 -467 -449 -90 -136 -138 -241 -182 -398 -17 -60 -33 -116
-36 -124 -3 -10 6 -20 25 -28 61 -27 86 -92 67 -169 -8 -33 -7 -33 29 -33 38
0 37 -3 20 58 -10 34 12 88 51 122 34 29 35 32 23 65 -7 19 -30 51 -51 70 -62
59 -64 131 -4 191 42 42 91 52 140 29 20 -10 38 -16 40 -14 3 2 32 46 65 97
146 222 376 401 621 485 133 45 225 60 382 62 121 2 151 5 174 20 66 43 137
27 192 -43 24 -30 50 -46 127 -76 l96 -38 22 20 c50 45 96 53 153 26 64 -31
93 -118 60 -183 -13 -25 -13 -28 5 -39 12 -8 38 -10 72 -6 65 8 108 -11 137
-59 24 -38 25 -82 5 -121 -19 -36 -20 -33 12 -41 40 -10 79 -41 93 -74 11 -29
10 -62 -6 -138 -8 -40 14 -53 48 -29 13 9 43 16 70 16 39 0 54 -6 83 -31 19
-17 40 -48 46 -70 11 -34 9 -44 -14 -90 -24 -49 -25 -54 -9 -66 25 -19 56 -12
60 15 2 12 -4 62 -14 110 -109 557 -606 1032 -1169 1117 -115 17 -368 17 -465
0z"/>
<path d="M1819 2621 c-17 -18 -29 -40 -29 -56 0 -38 27 -84 54 -91 18 -4 25
-15 30 -44 8 -52 36 -82 131 -138 44 -27 85 -59 92 -73 6 -13 16 -72 22 -130
5 -59 20 -149 32 -201 l21 -94 -35 -74 -35 -75 -1 165 -1 165 -102 103 c-100
100 -103 104 -103 148 -1 38 -6 51 -28 70 -47 40 -114 27 -142 -26 -35 -67 15
-136 91 -127 41 4 44 2 139 -87 l98 -91 -2 -200 c-2 -194 -3 -201 -27 -237
-13 -21 -26 -38 -29 -38 -2 0 -9 9 -15 20 -9 16 -7 26 9 47 33 40 28 95 -10
127 -41 35 -83 34 -120 -3 -51 -51 -37 -118 32 -150 19 -9 42 -32 53 -52 l19
-36 -31 -62 c-17 -35 -34 -79 -38 -98 -14 -76 -58 -45 -95 67 -19 56 -20 70
-11 107 16 59 15 102 -4 178 -9 36 -14 75 -10 88 5 21 11 24 52 23 38 -1 50 3
70 27 49 57 18 142 -57 153 -29 5 -41 1 -68 -22 -31 -26 -33 -31 -28 -77 3
-31 -1 -64 -11 -88 -13 -35 -13 -44 3 -95 17 -56 23 -143 10 -163 -3 -6 -31
37 -61 95 l-54 107 37 123 c34 115 38 123 64 129 65 14 90 99 45 152 -34 39
-98 39 -132 0 -13 -16 -24 -40 -24 -55 l-1 -27 -19 24 c-11 13 -20 33 -20 46
0 18 46 151 85 248 4 9 16 17 27 17 11 0 33 13 49 29 48 49 37 120 -23 146
-89 37 -161 -56 -111 -143 16 -28 16 -31 -7 -86 l-23 -58 -29 47 c-30 47 -59
65 -109 65 -23 0 -29 4 -29 21 0 34 -53 79 -93 79 -77 0 -118 -100 -62 -155
29 -29 88 -34 123 -9 14 9 38 14 64 12 39 -3 46 -8 76 -53 30 -46 33 -54 26
-100 -11 -78 -9 -89 31 -154 46 -74 54 -133 31 -214 -21 -73 -20 -105 4 -147
38 -65 72 -141 66 -147 -8 -8 -87 23 -128 50 -40 27 -118 173 -118 222 0 19
16 66 35 106 40 84 44 128 15 184 -13 26 -17 42 -10 49 20 20 11 86 -15 111
-55 56 -155 15 -155 -62 0 -48 45 -93 93 -93 38 0 57 -27 57 -81 0 -46 -27
-102 -44 -92 -28 16 -67 73 -100 146 -37 80 -69 113 -122 123 -19 3 -34 12
-34 19 0 23 -40 63 -71 70 -65 15 -128 -43 -114 -106 15 -66 105 -92 156 -44
26 26 27 26 67 10 29 -12 45 -26 57 -53 48 -105 60 -125 101 -171 41 -46 44
-51 38 -93 -5 -34 0 -57 21 -107 14 -35 24 -65 22 -67 -6 -7 -85 54 -96 74 -6
10 -17 50 -26 89 -18 79 -47 116 -104 130 -26 7 -37 16 -42 37 -12 45 -48 76
-86 76 -47 0 -72 -16 -89 -56 -12 -29 -12 -39 0 -68 8 -19 23 -39 34 -45 29
-15 75 -14 98 4 24 18 58 19 93 1 32 -17 47 -46 56 -109 9 -61 40 -107 105
-158 49 -38 92 -81 87 -86 -1 -1 -30 4 -64 11 -75 16 -105 34 -137 84 -37 58
-59 73 -127 82 -35 5 -70 10 -78 10 -8 0 -44 31 -80 69 -58 60 -72 69 -114 75
-30 5 -56 16 -72 32 -35 35 -88 33 -126 -5 -78 -79 22 -198 116 -137 13 9 27
27 31 41 5 19 13 25 33 25 38 -1 65 -19 99 -66 36 -49 102 -84 161 -84 57 0
92 -20 119 -69 31 -54 67 -78 154 -100 l73 -19 -62 -1 c-83 -1 -107 10 -178
79 -58 58 -63 60 -125 66 -52 6 -72 13 -99 37 -29 24 -40 28 -70 23 -75 -11
-106 -96 -57 -153 44 -51 132 -32 157 35 17 45 111 21 164 -43 69 -85 139
-104 309 -85 124 14 164 9 206 -27 70 -58 101 -187 60 -251 -12 -20 -27 -32
-37 -30 -10 2 -33 32 -54 68 -30 53 -35 72 -31 105 6 53 -26 93 -80 102 -32 5
-41 1 -68 -25 -38 -39 -41 -88 -6 -129 20 -23 32 -27 71 -28 42 0 50 -4 70
-34 30 -42 49 -122 41 -166 -7 -35 -63 -93 -76 -78 -4 4 -24 53 -45 108 -48
130 -67 159 -119 185 -35 17 -45 27 -50 54 -11 59 -67 94 -123 75 -63 -20 -81
-110 -32 -155 21 -19 57 -21 136 -9 39 7 46 4 76 -26 22 -22 43 -60 59 -109
14 -41 33 -92 42 -112 15 -36 15 -38 -6 -49 -26 -14 -36 -3 -79 86 -42 88 -67
109 -169 146 -129 46 -163 91 -124 168 45 90 -65 174 -143 107 -39 -34 -39
-98 0 -132 16 -13 38 -24 50 -24 16 0 28 -13 47 -51 27 -56 43 -67 175 -121
l80 -33 43 -83 c24 -46 41 -86 38 -89 -15 -15 -84 14 -147 62 -104 78 -288
252 -321 305 -16 25 -38 75 -49 112 -24 83 -49 113 -125 153 -54 28 -62 36
-94 102 -42 85 -68 115 -126 142 -68 32 -81 70 -39 115 33 36 39 66 22 108
-29 70 -128 73 -163 5 -27 -51 -4 -112 48 -130 9 -3 20 -21 23 -39 9 -46 22
-61 92 -102 53 -31 65 -44 88 -94 14 -31 32 -68 38 -82 7 -14 38 -39 70 -56
65 -34 101 -64 77 -64 -49 1 -205 40 -227 57 -44 32 -50 49 -29 83 48 82 -37
170 -122 126 -75 -39 -57 -146 28 -171 14 -4 46 -27 71 -51 51 -47 109 -68
217 -80 43 -5 60 -10 53 -17 -7 -7 -49 -5 -128 6 l-118 16 -45 51 -45 50 -87
0 c-77 0 -90 3 -114 24 -28 23 -28 23 -11 59 20 41 15 74 -14 106 -59 64 -159
23 -159 -65 0 -52 37 -94 83 -94 21 0 40 -10 64 -35 36 -37 45 -40 135 -36 74
4 93 -3 117 -44 27 -47 66 -64 170 -74 116 -12 166 -38 217 -113 33 -47 27
-57 -15 -23 -51 44 -89 49 -187 25 -113 -27 -130 -26 -166 10 -24 25 -28 35
-23 59 19 86 -92 144 -155 81 -66 -66 -6 -171 89 -155 32 5 40 2 65 -24 40
-42 77 -46 180 -22 107 26 124 26 156 1 l25 -20 -50 0 c-34 0 -70 -9 -113 -30
-77 -36 -121 -38 -159 -7 -44 37 -55 37 -152 6 -119 -38 -159 -26 -152 47 1
22 -6 40 -24 62 -23 27 -34 32 -71 32 -62 0 -94 -32 -94 -94 0 -37 5 -48 32
-71 28 -23 37 -26 79 -20 29 4 49 3 53 -4 4 -6 23 -15 43 -20 30 -8 50 -5 125
20 83 27 128 31 128 9 0 -5 20 -16 45 -25 53 -21 100 -14 161 21 46 27 131 33
174 11 20 -10 54 -56 47 -63 -1 -2 -29 7 -62 18 -76 25 -105 20 -228 -37 -53
-25 -101 -45 -107 -45 -6 0 -24 10 -40 21 -58 44 -140 -3 -140 -80 1 -43 17
-66 55 -81 52 -20 117 13 127 65 2 10 14 25 28 32 103 52 202 93 228 93 17 0
67 -13 112 -30 44 -16 118 -39 163 -51 106 -26 402 -180 471 -244 25 -23 28
-31 22 -63 -4 -20 -11 -71 -16 -111 -9 -89 -16 -96 -118 -131 l-71 -24 -73 23
c-237 75 -468 240 -608 435 -31 43 -62 75 -72 76 -11 0 -26 -16 -38 -40 -23
-45 -45 -59 -107 -69 l-44 -6 52 -75 c216 -315 563 -533 944 -595 121 -20 366
-19 486 1 296 50 551 184 769 403 122 123 195 220 260 348 l40 78 -46 6 c-37
4 -53 13 -84 47 -22 23 -46 42 -54 42 -22 0 -46 -11 -46 -22 0 -16 -80 -149
-126 -209 -62 -81 -179 -195 -259 -252 -79 -56 -241 -139 -322 -164 -50 -16
-55 -16 -89 0 -52 25 -68 71 -67 189 0 77 5 105 22 141 25 51 169 195 251 250
l54 36 90 -5 c126 -7 156 -13 156 -29 0 -21 50 -55 82 -55 60 0 97 35 98 92 0
49 -33 87 -82 95 -33 5 -41 2 -74 -31 l-37 -37 -99 8 -100 8 92 105 c94 109
118 125 184 131 39 4 40 4 121 -101 84 -108 98 -117 170 -119 35 -1 42 -5 52
-30 23 -63 121 -77 163 -24 61 78 -24 187 -117 148 -18 -8 -36 -21 -39 -30 -5
-11 -20 -15 -58 -15 -59 0 -65 5 -149 116 l-47 62 35 6 c32 6 39 3 69 -29 44
-47 94 -49 137 -6 41 41 40 91 -1 133 -27 27 -36 30 -73 25 -27 -4 -48 -14
-59 -29 -10 -13 -22 -28 -27 -34 -4 -6 -61 -15 -124 -22 -64 -6 -129 -18 -145
-26 -15 -8 -71 -63 -124 -123 -144 -162 -124 -155 -191 -74 -31 38 -57 72 -57
74 0 3 12 8 26 11 15 4 50 31 78 60 47 49 55 53 110 60 78 9 119 30 142 72 15
28 24 34 52 34 75 0 110 96 58 157 -19 22 -32 28 -64 28 -76 0 -119 -69 -86
-138 16 -33 16 -37 1 -61 -18 -26 -57 -41 -142 -52 -44 -5 -55 -12 -101 -62
-50 -54 -54 -56 -113 -60 -39 -3 -61 -1 -61 6 0 6 40 45 89 87 88 73 91 75
131 69 93 -15 144 74 84 145 -21 25 -33 31 -65 31 -56 0 -89 -34 -89 -93 0
-41 -3 -45 -71 -101 -38 -32 -73 -56 -76 -52 -10 10 24 80 86 177 89 140 81
132 119 118 55 -19 105 -6 173 45 33 25 68 46 77 46 9 0 42 -18 74 -40 115
-81 223 -112 308 -88 23 7 28 2 67 -82 51 -106 95 -154 160 -173 40 -12 49
-19 55 -45 15 -59 93 -91 149 -62 29 16 52 68 45 105 -14 74 -103 103 -168 55
-27 -20 -35 -21 -68 -11 -49 15 -90 62 -136 157 -29 62 -34 78 -23 85 24 15
53 10 107 -21 43 -25 52 -35 52 -58 0 -29 38 -73 74 -86 28 -10 82 11 100 39
59 89 -50 200 -133 136 -24 -18 -25 -18 -70 10 -55 36 -118 38 -188 8 -69 -30
-143 -23 -229 22 -37 19 -66 39 -66 44 1 5 22 14 47 20 25 7 58 23 73 37 52
49 78 60 121 53 34 -6 42 -12 51 -40 15 -47 45 -70 90 -70 42 0 76 24 91 64
12 31 -6 86 -34 106 -30 21 -89 19 -120 -5 -21 -16 -32 -18 -68 -12 -59 11
-91 1 -145 -47 -48 -42 -106 -59 -163 -48 -44 9 -94 -9 -157 -58 -44 -35 -66
-45 -94 -45 -20 0 -39 3 -43 6 -3 4 24 35 61 70 71 69 111 86 222 99 82 10
113 22 150 60 23 24 43 35 62 35 36 0 83 24 92 45 3 9 6 34 6 55 0 30 -6 44
-31 64 -39 33 -79 33 -117 1 -35 -29 -48 -74 -32 -105 29 -54 -23 -94 -145
-111 -110 -14 -161 -32 -198 -67 l-28 -27 17 40 c49 120 67 138 168 171 99 32
122 52 133 112 8 45 10 47 47 53 79 13 110 89 60 148 -21 26 -33 31 -69 31
-36 0 -48 -5 -70 -32 -22 -26 -26 -37 -20 -67 10 -53 8 -136 -3 -158 -7 -12
-34 -26 -74 -37 -83 -23 -144 -59 -164 -98 -21 -41 -26 -30 -49 105 -21 126
-23 120 71 247 59 81 69 90 98 90 71 0 112 94 66 153 -40 51 -126 43 -155 -14
-19 -35 -19 -57 -1 -91 14 -26 12 -30 -36 -98 -28 -38 -54 -70 -57 -70 -3 0
-13 13 -22 28 -9 16 -53 50 -107 82 -114 68 -139 112 -88 159 33 31 40 65 21
105 -29 61 -99 74 -146 27z m226 -1571 c37 -45 66 -82 64 -83 -24 -17 -91 -38
-98 -31 -4 5 -20 44 -35 87 -15 43 -30 85 -33 93 -3 9 2 14 15 14 13 0 44 -29
87 -80z"/>
<path d="M203 1394 c3 -11 9 -55 12 -99 5 -55 13 -89 27 -108 11 -15 20 -43
21 -62 1 -31 4 -35 28 -35 15 0 42 6 60 14 l33 14 -31 16 c-40 20 -71 60 -79
100 -5 29 4 61 34 119 2 4 -5 7 -15 7 -10 0 -36 12 -57 26 -33 23 -37 24 -33
8z"/>
<path d="M2910 1256 c0 -33 -36 -83 -72 -102 -18 -9 -36 -22 -40 -28 -23 -34
13 -35 54 -1 37 32 108 34 155 6 l31 -20 7 26 c11 46 -12 81 -76 111 -57 28
-59 28 -59 8z"/>
</g>
</svg>
